<svg xmlns="http://www.w3.org/2000/svg" viewBox="0 0 41.67 41.38"><defs><clipPath id="clip-path"><circle class="cls-1" cx="20.69" cy="20.69" r="20.69"/></clipPath><clipPath id="clip-path-2"><path class="cls-1" d="M20.69 0A20.69 20.69 0 110 20.69l15.36 15.63 13.15 2.55-2.73-13L6.15 6l.18-.17.23-.22.13-.12.23-.21.14-.12.23-.2.15-.12.19-.16.19-.16.18-.2.17-.13.25-.19.19-.14.2-.13.19-.12.19-.13.23-.15.18-.11.24-.16L10 3l.26-.15.17-.09.27-.16.16-.09.29-.15.15-.07.3-.16.18-.13.31-.15.14-.06.32-.15h.14l.31-.17.13-.05.36-.14h.11l.4-.17h.1l.38-.11h.09L15 .8h.08l.42-.11h.07L16 .55h.07l.44-.1h.06L17 .33l.47-.07.53-.09h2.57zM1.82 12.19c.06-.14.13-.28.19-.41v-.05l.18-.39v-.08l.18-.34.06-.12.17-.3.09-.16.15-.24a2.53 2.53 0 01.13-.22l.11-.18.18-.28a.61.61 0 01.07-.1L3.65 9v-.05l17 16.93-.06 2.55-2.55.05z"/></clipPath><radialGradient id="Безымянный_градиент" cx="-292.62" cy="329.76" r=".5" gradientTransform="matrix(41.38 0 0 -41.38 12128.84 13665.56)" gradientUnits="userSpaceOnUse"><stop offset="0" stop-color="#fff"/><stop offset="1" stop-color="#d8d8d8"/></radialGradient><style>.cls-1{fill:none}.cls-4{fill:#a5a5a5}</style></defs><g id="Слой_2" data-name="Слой 2"><g id="Слой_1-2" data-name="Слой 1"><g id="Capa_1"><g id="_1855587373456" data-name="1855587373456"><path class="cls-1" d="M20.69 0A20.69 20.69 0 110 20.69 20.69 20.69 0 0120.69 0z"/><path id="_1" data-name="1" d="M20.69 0A20.69 20.69 0 110 20.69 20.69 20.69 0 0120.69 0z" fill="#22a900"/><g clip-path="url(#clip-path)"><path id="_2" data-name="2" class="cls-4" d="M31.85 19.14l.1.28.07.12h.73l.09-.19a57.31 57.31 0 001.68-5.69 26.91 26.91 0 00.83-8 9.44 9.44 0 00-.75-3.11A3.35 3.35 0 0032.86.6c-1-.36-1.9.5-2.32 1.2-2.22 3.68-.8 10 .23 13.81l.35 1.29c.23.75.5 1.42.73 2.24zm-1.55 1.61l.58 2.56h2.75l.53-2.6zm7.5-19.37a6.1 6.1 0 013.79 4.35l.08.78v.63l-.11.7v.33c-.77 3.66-4.3 8.46-7.41 11 4.3-4.93 10.77-12.74 3.71-17.79zm-10.8 0a6.1 6.1 0 00-3.79 4.35l-.08.78v.63l.1.7.06.33c.77 3.66 4.3 8.46 7.4 11C26.42 14.24 20 6.43 27 1.38zm6.23 18l.38-.28c4.61-3.73 10.93-16.26 1-18.57a2.24 2.24 0 00-.72-.1c7.83 2.91 2.55 14.24-.63 19zm-1.67 0l-.39-.28c-4.6-3.73-10.92-16.26-1-18.57a2.25 2.25 0 01.71-.1c-7.82 2.91-2.54 14.24.64 19z"/></g><path class="cls-1" d="M20.69 0A20.69 20.69 0 110 20.69l15.36 15.63 13.15 2.55-2.73-13L6.15 6l.18-.17.23-.22.13-.12.23-.21.14-.12.23-.2.15-.12.19-.16.19-.16.18-.2.17-.13.25-.19.19-.14.2-.13.19-.12.19-.13.23-.15.18-.11.24-.16L10 3l.26-.15.17-.09.27-.16.16-.09.29-.15.15-.07.3-.16.18-.13.31-.15.14-.06.32-.15h.14l.31-.17.13-.05.36-.14h.11l.4-.17h.1l.38-.11h.09L15 .8h.08l.42-.11h.07L16 .55h.07l.44-.1h.06L17 .33l.47-.07.53-.09h2.57zM1.82 12.19c.06-.14.13-.28.19-.41v-.05l.18-.39v-.08l.18-.34.06-.12.17-.3.09-.16.15-.24a2.53 2.53 0 01.13-.22l.11-.18.18-.28a.61.61 0 01.07-.1L3.65 9v-.05l17 16.93-.06 2.55-2.55.05z"/><path id="_1-2" data-name="1" d="M20.69 0A20.69 20.69 0 110 20.69l15.36 15.63 13.15 2.55-2.73-13L6.15 6l.18-.17.23-.22.13-.12.23-.21.14-.12.23-.2.15-.12.19-.16.19-.16.18-.2.17-.13.25-.19.19-.14.2-.13.19-.12.19-.13.23-.15.18-.11.24-.16L10 3l.26-.15.17-.09.27-.16.16-.09.29-.15.15-.07.3-.16.18-.13.31-.15.14-.06.32-.15h.14l.31-.17.13-.05.36-.14h.11l.4-.17h.1l.38-.11h.09L15 .8h.08l.42-.11h.07L16 .55h.07l.44-.1h.06L17 .33l.47-.07.53-.09h2.57zM1.82 12.19c.06-.14.13-.28.19-.41v-.05l.18-.39v-.08l.18-.34.06-.12.17-.3.09-.16.15-.24a2.53 2.53 0 01.13-.22l.11-.18.18-.28a.61.61 0 01.07-.1L3.65 9v-.05l17 16.93-.06 2.55-2.55.05z" fill="url(#Безымянный_градиент)"/><g clip-path="url(#clip-path-2)"><path id="_2-2" data-name="2" class="cls-4" d="M31.85 19.14l.1.28.07.12h.73l.09-.19a57.31 57.31 0 001.68-5.69 26.91 26.91 0 00.83-8 9.44 9.44 0 00-.75-3.11A3.35 3.35 0 0032.86.6c-1-.36-1.9.5-2.32 1.2-2.22 3.68-.8 10 .23 13.81l.35 1.29c.23.75.5 1.42.73 2.24zm-1.55 1.61l.58 2.56h2.75l.53-2.6zm7.5-19.37a6.1 6.1 0 013.79 4.35l.08.78v.63l-.11.7v.33c-.77 3.66-4.3 8.46-7.41 11 4.3-4.93 10.77-12.74 3.71-17.79zm-10.8 0a6.1 6.1 0 00-3.79 4.35l-.08.78v.63l.1.7.06.33c.77 3.66 4.3 8.46 7.4 11C26.42 14.24 20 6.43 27 1.38zm6.23 18l.38-.28c4.61-3.73 10.93-16.26 1-18.57a2.24 2.24 0 00-.72-.1c7.83 2.91 2.55 14.24-.63 19zm-1.67 0l-.39-.28c-4.6-3.73-10.92-16.26-1-18.57a2.25 2.25 0 01.71-.1c-7.82 2.91-2.54 14.24.64 19z"/></g></g></g></g></g></svg>