<svg xmlns="http://www.w3.org/2000/svg" viewBox="0 0 240 234" width="128"><path fill="#261300" d="M10 10h220v214H10V10z"/><path fill="#FF7C00" d="M0 0v234h240V0H0zm10 10h220v214H10V10z"/><path fill="#FF7C00" d="M83.3 132.5l-7.9 30c-.2.8-.5 1-1.5 1H59.2c-1 0-1.2-.3-1-1.5l28.4-99.4c.5-1.8.8-3.4 1-8.3 0-.7.3-1 .8-1h21c.7 0 1 .2 1.2 1l31.8 107.9c.2.8 0 1.3-.8 1.3H125c-.8 0-1.3-.2-1.5-.9l-8.3-30.1H83.3zm27.8-16.2c-2.8-11.1-9.4-35.3-11.9-47H99c-2.1 11.7-7.4 31.5-11.6 47h23.7zm45-55.6c0-6.4 4.5-10.2 10.2-10.2 6.1 0 10.2 4.1 10.2 10.2 0 6.6-4.3 10.2-10.4 10.2-5.8 0-10-3.6-10-10.2zm1.2 22.7c0-.8.3-1.2 1.2-1.2h15.7c.8 0 1.2.3 1.2 1.2v78.9c0 .8-.2 1.2-1.2 1.2h-15.5c-1 0-1.3-.5-1.3-1.3V83.4z"/></svg>