<svg xmlns="http://www.w3.org/2000/svg" viewBox="0 0 64 64" width="64" height="64"><linearGradient id="a" x1="27.5" x2="27.5" y1="7.333" y2="48.752" gradientUnits="userSpaceOnUse" spreadMethod="reflect"><stop offset="0" stop-color="#1a6dff"/><stop offset="1" stop-color="#c822ff"/></linearGradient><path fill="url(#a)" d="M52.665 10.741c-.254-2.003-.455-3.585-1.708-3.732-1.137-.129-1.842 1.129-2.739 3.505-1.927 5.112-7.478 9.227-14.202 10.578a7.94 7.94 0 00-8.605.366c-6.088-.533-10.538-6.952-10.583-7.019L13 11.75v12.479a6.528 6.528 0 00-.898 2.351c-2.56-1.722-5.547-2.109-7.676-.722-1.216.793-2.013 2.038-2.306 3.602-.426 2.275.268 4.886 1.905 7.164 1.94 2.701 4.802 4.277 7.379 4.348l-.043.052c1.725 1.434 4.659 3.421 7.325 4.625 5.004 2.262 9.664 3.385 13.854 3.384 6.082 0 11.171-2.366 14.878-7.048 6.53-8.248 5.782-27.036 5.247-31.244zM36 28c0 3.309-2.691 6-6 6s-6-2.691-6-6 2.691-6 6-6 6 2.691 6 6zm-21.025 1.376c-.292-.407-.61-.782-.94-1.138a4.602 4.602 0 01-.035-.55C14 25.103 16.181 23 18.862 23c1.504 0 2.9.674 3.814 1.792A7.953 7.953 0 0022 28c0 .943.172 1.844.473 2.685C21.498 32.158 20.196 33 18.838 33c-.845 0-1.678-.339-2.429-.957a11.36 11.36 0 00-1.434-2.667zm3.734-8.368A6.943 6.943 0 0015 22.165v-4.364c.929.999 2.187 2.179 3.709 3.207zM5.649 35.457c-1.3-1.81-1.884-3.914-1.563-5.629.132-.707.488-1.679 1.432-2.294.551-.359 1.205-.528 1.908-.528 1.973 0 4.338 1.329 5.925 3.537 1.299 1.809 1.884 3.912 1.563 5.627-.132.708-.488 1.68-1.432 2.296-2.094 1.366-5.681-.013-7.833-3.009zm40.2 5.288c-5.634 7.118-14.989 8.211-26.34 3.083-1.918-.867-3.984-2.168-5.576-3.337.22-.101.435-.215.641-.349 1.216-.793 2.014-2.04 2.306-3.604a7.525 7.525 0 00.098-1.886 5.434 5.434 0 001.86.348c1.742 0 3.376-.848 4.66-2.357A7.987 7.987 0 0030 36c4.411 0 8-3.589 8-8 0-2.04-.774-3.898-2.035-5.312 6.682-1.784 12.113-6.134 14.124-11.469.178-.471.333-.849.465-1.152.053.354.097.699.125.926.427 3.352 1.302 22.007-4.83 29.752z"/><linearGradient id="b" x1="7" x2="7" y1="7.333" y2="48.752" gradientUnits="userSpaceOnUse" spreadMethod="reflect"><stop offset="0" stop-color="#1a6dff"/><stop offset="1" stop-color="#c822ff"/></linearGradient><path fill="url(#b)" d="M7 27a3 3.5 0 100 7 3 3.5 0 100-7z"/><linearGradient id="c" x1="32" x2="32" y1="7.333" y2="48.752" gradientUnits="userSpaceOnUse" spreadMethod="reflect"><stop offset="0" stop-color="#1a6dff"/><stop offset="1" stop-color="#c822ff"/></linearGradient><path fill="url(#c)" d="M32 26c-.115 0-.221.024-.333.033A1.997 1.997 0 0131.334 30a2 2 0 01-2-2c0-.541.217-1.031.567-1.391A3.985 3.985 0 0028 30a4 4 0 104-4z"/><linearGradient id="d" x1="20.5" x2="20.5" y1="7.333" y2="48.752" gradientUnits="userSpaceOnUse" spreadMethod="reflect"><stop offset="0" stop-color="#1a6dff"/><stop offset="1" stop-color="#c822ff"/></linearGradient><path fill="url(#d)" d="M20.5 26c-.099 0-.193.021-.291.029a1.748 1.748 0 01-.291 3.471 1.75 1.75 0 01-1.75-1.75c0-.473.19-.902.496-1.217A3.486 3.486 0 0017 29.5a3.5 3.5 0 103.5-3.5z"/><linearGradient id="e" x1="48.512" x2="48.512" y1="39" y2="56.285" gradientUnits="userSpaceOnUse" spreadMethod="reflect"><stop offset="0" stop-color="#6dc7ff"/><stop offset="1" stop-color="#e6abff"/></linearGradient><path fill="url(#e)" d="M60.358 46.42c-1.538-1.526-3.694-1.852-5.367-.812-.017.01-.03.025-.047.035-1.847-1.36-4.682-2.93-8.013-4.347-2.351-1-4.607-1.78-6.544-2.296l-5.362 1.338s5.08 3.779 9.59 5.698c3.165 1.346 6.147 2.284 8.421 2.726-.093.787-.003 1.641.289 2.509 1.004 2.99 6.775 4.532 7.43 4.698l1.243.315.002-1.282c.003-1.627-.106-7.056-1.642-8.582z"/><linearGradient id="f" x1="33" x2="33" y1="7.333" y2="48.752" gradientUnits="userSpaceOnUse" spreadMethod="reflect"><stop offset="0" stop-color="#1a6dff"/><stop offset="1" stop-color="#c822ff"/></linearGradient><path fill="url(#f)" d="M24 40.003s15.255.983 15.255-2.49c0-1.726-1.113-3.513-1.113-3.513s4.466 2.368 3.789 5.521a4.357 4.357 0 01-.662 1.505C37.929 46.001 24 40.003 24 40.003z"/></svg>