<svg xmlns="http://www.w3.org/2000/svg" viewBox="0 0 706.3 816.1"><path d="M271.8 368.1H.3S-14 546 142.1 693.2C284.3 827.2 455 815.8 455 815.8V551.7c-89.7 0-183.2-74.6-183.2-183.6z" fill="#f4b500"/><path d="M428.3 211.1V.1S277.9-8.1 161.9 114.2c-90.9 94.5-99 213.7-99 213.7s168.4 31.5 208.8 40.2c-1.1-89 68.6-157 156.6-157z" fill="#4481f6"/><path d="M63 327.9s-3.6 21.7-1.5 40.2h210.3L63 327.9z" fill="#3566c5"/><path d="M428.3 211.1l40.5-145.8s-26.2-3.4-40.5-1.8v147.6z" fill="#af362b"/><path d="M428.3 211.1s129.9-2.7 135.9 137h142S719 120 468.8 65.3c-10 36.3-40.5 145.8-40.5 145.8z" fill="#db4533"/><path d="M455.1 551.7L504 443s57.7-27.4 60.3-95c18.7 8.2 63.7 26.8 84.3 35.9-4.5 34.8-51 163.8-193.5 167.8z" fill="#ccc"/><path d="M504 443s-20.5 14-48.9 11.6v97.1L504 443zm60.2-95h89.3s2.1 13-5 35.9c-18.7-8.1-84.3-35.9-84.3-35.9z" fill="#b7b7b7"/></svg>