<?xml version="1.0" standalone="no"?>
<!DOCTYPE svg PUBLIC "-//W3C//DTD SVG 20010904//EN"
 "https://www.w3.org/TR/2001/REC-SVG-20010904/DTD/svg10.dtd">
<svg version="1.0" xmlns="http://www.w3.org/2000/svg"
 width="192.000000pt" height="192.000000pt" viewBox="0 0 192.000000 192.000000"
 preserveAspectRatio="xMidYMid meet">
<metadata>
Created by potrace 1.11, written by Peter Selinger 2001-2013
</metadata>
<g transform="translate(0.000000,192.000000) scale(0.100000,-0.100000)"
fill="#000000" stroke="none">
<path d="M890 1900 c0 -6 18 -49 40 -96 45 -97 43 -110 -22 -139 -59 -26 -50
-38 38 -50 75 -11 164 -35 203 -55 57 -30 110 -126 127 -231 13 -83 8 -237
-12 -332 -9 -43 -29 -18 -59 74 -20 59 -31 79 -43 77 -19 -4 -60 -82 -67 -131
-5 -30 -2 -38 25 -60 17 -15 50 -32 73 -39 23 -6 43 -12 44 -13 2 -1 -6 -24
-17 -53 -11 -28 -22 -66 -26 -84 -8 -44 -9 -49 -23 -81 -6 -16 -8 -34 -4 -40
4 -7 8 -43 10 -81 2 -73 10 -142 17 -155 17 -27 163 5 228 51 16 11 40 22 55
24 33 6 56 26 58 51 0 10 15 39 32 63 25 37 72 128 78 150 17 65 14 62 71 57
39 -3 59 0 79 13 26 17 51 55 50 75 -3 30 -20 83 -33 104 l-16 23 -20 -25
c-12 -14 -32 -43 -45 -66 -32 -54 -56 -63 -45 -18 12 47 8 182 -7 236 -14 52
-64 158 -85 178 -8 8 -14 18 -14 22 0 12 -110 117 -167 159 -29 22 -101 66
-160 98 -85 46 -126 77 -194 144 -47 47 -98 102 -113 123 -27 35 -56 49 -56
27z"/>
<path d="M620 1530 c-45 -9 -104 -34 -140 -60 -15 -11 -39 -20 -53 -20 -29 0
-44 -16 -51 -54 -5 -26 -27 -61 -51 -78 -5 -4 -7 -8 -2 -8 4 0 -4 -18 -18 -40
-14 -22 -23 -40 -20 -40 3 0 -1 -10 -10 -23 -8 -12 -16 -32 -18 -42 -4 -28
-17 -46 -27 -40 -5 3 -31 6 -57 7 -41 0 -50 -3 -76 -32 -25 -28 -29 -39 -25
-75 6 -47 27 -97 44 -102 7 -2 26 20 43 50 17 29 40 62 51 72 21 19 21 19 15
-16 -14 -72 -7 -193 15 -264 12 -38 27 -77 34 -85 6 -8 18 -28 26 -45 42 -84
233 -241 389 -320 29 -14 60 -32 69 -38 25 -21 165 -160 212 -212 39 -43 45
-47 48 -29 2 11 -15 58 -37 104 l-41 84 22 23 c12 13 27 23 34 23 6 0 22 8 35
18 l22 19 -29 7 c-16 4 -45 9 -64 12 -215 23 -279 80 -327 289 -5 22 -4 229 1
260 13 81 19 95 32 84 11 -9 40 -82 48 -122 6 -28 19 -47 32 -47 19 0 61 77
69 126 6 38 4 43 -30 71 -20 17 -52 33 -74 37 -34 5 -38 9 -34 28 3 13 9 28
13 33 8 10 26 71 34 115 2 14 9 37 16 52 8 16 9 34 5 45 -5 10 -9 50 -11 88
-2 78 -9 128 -19 144 -7 12 -42 13 -95 1z"/>
</g>
</svg>
