<svg width="155" height="121" viewBox="0 0 155 121" fill="none" xmlns="http://www.w3.org/2000/svg"><path d="M85.583 3H6.25A4.25 4.25 0 002 7.25v107.667a4.25 4.25 0 004.25 4.25h79.333a4.25 4.25 0 004.25-4.25V7.25A4.25 4.25 0 0085.583 3z" fill="url(#paint0_linear)"/><path d="M36 15.75H11.917V20H36v-4.25zm42.5 90.667H54.417v4.25H78.5v-4.25z" fill="#0069FF"/><path d="M36 39.833H11.917v4.25H36v-4.25zm12.042 4.25a2.125 2.125 0 100-4.25 2.125 2.125 0 000 4.25zm0 21.251a2.125 2.125 0 100-4.25 2.125 2.125 0 000 4.25zm-8.501 0a2.125 2.125 0 100-4.25 2.125 2.125 0 000 4.25zm17.001 0a2.125 2.125 0 100-4.25 2.125 2.125 0 000 4.25zm0-21.251a2.125 2.125 0 100-4.25 2.125 2.125 0 000 4.25zm-8.5 42.501a2.125 2.125 0 100-4.25 2.125 2.125 0 000 4.25zm8.5 0a2.125 2.125 0 100-4.25 2.125 2.125 0 000 4.25zm-27.625-25.5h-17v4.25h17v-4.25zM36 82.334H11.917v4.25H36v-4.25z" fill="#120078"/><path d="M88.417 29.917h-85v2.833h85v-2.833zm0 21.25h-85V54h85v-2.833zm0 21.249h-85v2.834h85v-2.834zm0 21.25h-85V96.5h85v-2.834z" fill="#8FBEFF"/><path d="M85.583 3H6.25A4.25 4.25 0 002 7.25v107.667a4.25 4.25 0 004.25 4.25h79.333a4.25 4.25 0 004.25-4.25V7.25A4.25 4.25 0 0085.583 3z" stroke="#0069FF" stroke-width="2.833"/><g filter="url(#filter0_d)"><path d="M129.917 10.5H71.834a4.25 4.25 0 00-4.25 4.25v68a4.25 4.25 0 004.25 4.25h58.083a4.25 4.25 0 004.25-4.25v-68a4.25 4.25 0 00-4.25-4.25z" fill="#6CA9FF"/></g><path d="M72.834 8.667h58.083a4.25 4.25 0 014.25 4.25v21.25H68.584v-21.25a4.25 4.25 0 014.25-4.25z" fill="#fff"/><path d="M126.667 17.167h-51c-.783 0-1.417.634-1.417 1.416v8.5c0 .783.634 1.417 1.417 1.417h51c.782 0 1.416-.634 1.416-1.417v-8.5c0-.782-.634-1.416-1.416-1.416z" fill="#8FBEFF"/><path d="M75.667 39.833h7.083c.782 0 1.417.635 1.417 1.417v4.25c0 .782-.635 1.417-1.417 1.417h-7.083A1.417 1.417 0 0174.25 45.5v-4.25c0-.782.634-1.417 1.417-1.417zm14.639 0h7.083c.782 0 1.417.635 1.417 1.417v4.25c0 .782-.635 1.417-1.417 1.417h-7.083a1.417 1.417 0 01-1.417-1.417v-4.25c0-.782.634-1.417 1.417-1.417zm14.638 0h7.084c.782 0 1.416.635 1.416 1.417v4.25c0 .782-.634 1.417-1.416 1.417h-7.084a1.416 1.416 0 01-1.416-1.417v-4.25c0-.782.634-1.417 1.416-1.417zm14.639 0h7.084c.782 0 1.416.635 1.416 1.417v4.25c0 .782-.634 1.417-1.416 1.417h-7.084a1.416 1.416 0 01-1.416-1.417v-4.25c0-.782.634-1.417 1.416-1.417zM75.667 51.167h7.083c.782 0 1.417.634 1.417 1.416v4.25c0 .783-.635 1.417-1.417 1.417h-7.083a1.417 1.417 0 01-1.417-1.417v-4.25c0-.782.634-1.416 1.417-1.416zm14.639 0h7.083c.782 0 1.417.634 1.417 1.416v4.25c0 .783-.635 1.417-1.417 1.417h-7.083a1.417 1.417 0 01-1.417-1.417v-4.25c0-.782.634-1.416 1.417-1.416zm14.638 0h7.084c.782 0 1.416.634 1.416 1.416v4.25c0 .783-.634 1.417-1.416 1.417h-7.084a1.416 1.416 0 01-1.416-1.417v-4.25c0-.782.634-1.416 1.416-1.416zm14.639 0h7.084c.782 0 1.416.634 1.416 1.416v4.25c0 .783-.634 1.417-1.416 1.417h-7.084a1.416 1.416 0 01-1.416-1.417v-4.25c0-.782.634-1.416 1.416-1.416zM75.667 62.5h7.083c.782 0 1.417.634 1.417 1.417v4.25c0 .782-.635 1.416-1.417 1.416h-7.083a1.417 1.417 0 01-1.417-1.416v-4.25c0-.783.634-1.417 1.417-1.417zm14.639 0h7.083c.782 0 1.417.634 1.417 1.417v4.25c0 .782-.635 1.416-1.417 1.416h-7.083a1.417 1.417 0 01-1.417-1.416v-4.25c0-.783.634-1.417 1.417-1.417zm14.638 0h7.084c.782 0 1.416.634 1.416 1.417v4.25c0 .782-.634 1.416-1.416 1.416h-7.084a1.416 1.416 0 01-1.416-1.416v-4.25c0-.783.634-1.417 1.416-1.417zM75.667 73.833h7.083c.782 0 1.417.635 1.417 1.417v4.25c0 .782-.635 1.417-1.417 1.417h-7.083A1.417 1.417 0 0174.25 79.5v-4.25c0-.782.634-1.417 1.417-1.417zm14.639 0h7.083c.782 0 1.417.635 1.417 1.417v4.25c0 .782-.635 1.417-1.417 1.417h-7.083a1.417 1.417 0 01-1.417-1.417v-4.25c0-.782.634-1.417 1.417-1.417zm14.638 0h7.084c.782 0 1.416.635 1.416 1.417v4.25c0 .782-.634 1.417-1.416 1.417h-7.084a1.416 1.416 0 01-1.416-1.417v-4.25c0-.782.634-1.417 1.416-1.417zM119.583 62.5h7.084c.782 0 1.416.634 1.416 1.417V79.5c0 .782-.634 1.417-1.416 1.417h-7.084a1.416 1.416 0 01-1.416-1.417V63.917c0-.783.634-1.417 1.416-1.417z" fill="#fff"/><path d="M126.667 62.5h-7.083c-.783 0-1.417.634-1.417 1.417V79.5c0 .782.634 1.417 1.417 1.417h7.083c.782 0 1.417-.635 1.417-1.417V63.917c0-.783-.635-1.417-1.417-1.417z" fill="#120078"/><path d="M130.917 10.083h-59.5a4.25 4.25 0 00-4.25 4.25V83.75a4.25 4.25 0 004.25 4.25h59.5a4.25 4.25 0 004.25-4.25V14.333a4.25 4.25 0 00-4.25-4.25z" stroke="#0069FF" stroke-width="2.833"/><defs><linearGradient id="paint0_linear" x1="36.612" y1="17.471" x2="152.522" y2="155.216" gradientUnits="userSpaceOnUse"><stop stop-color="#fff"/><stop offset="1" stop-color="#8BBBFF"/></linearGradient><filter id="filter0_d" x="47.584" y=".5" width="106.583" height="116.5" filterUnits="userSpaceOnUse" color-interpolation-filters="sRGB"><feFlood flood-opacity="0" result="BackgroundImageFix"/><feColorMatrix in="SourceAlpha" values="0 0 0 0 0 0 0 0 0 0 0 0 0 0 0 0 0 0 127 0"/><feOffset dy="10"/><feGaussianBlur stdDeviation="10"/><feColorMatrix values="0 0 0 0 0.00392157 0 0 0 0 0.054902 0 0 0 0 0.156863 0 0 0 0.25 0"/><feBlend in2="BackgroundImageFix" result="effect1_dropShadow"/><feBlend in="SourceGraphic" in2="effect1_dropShadow" result="shape"/></filter></defs></svg>