<svg width="953" height="166" viewBox="0 0 953 166" xmlns="http://www.w3.org/2000/svg"><g fill="none" fill-rule="evenodd"><path fill="#1269D3" d="M949.513 127.557l-6.715 5.837 3.357 4.416 6.51-7.257z"/><path fill="#E954AC" d="M892.547 108.788l1.676 10.04 10.51-1.593v-10.589zm-46.593 50.207l3.578-4.061 6.014 6.676-2.954 3.952z"/><path fill="#6F47BE" d="M815.196 118.827l4.89 6.381 8.686-6.38-4.256-6.091z"/><path fill="#30A64A" d="M713.708 117.26l.043 7.948h5.498v-6.236z"/><path fill="#FFDF5D" d="M746.584 78.28v7.017l2.055 2.619v-7.42z"/><path fill="#1269D3" d="M660.435 44.78l-3.464 3.494 9.015 1.664 2.406-2.579zm-11.116-21.788L647.042 25h6.865l1.489-2.007z"/><path fill="#E954AC" d="M604.14 40.963l1.471 6.396 9.685-1.663-2.438-5.68z"/><path fill="#FFDF5D" d="M576.577 133.55l-1.496 7.588 3.414 2.08 1.732-8.43z"/><path fill="#E954AC" d="M514.384 62.738l-1.429 3.976h7.338l.728-3.976zm-39.563 15.324l2.894 3.586 8.464-6.43-4.022-2.722z"/><path fill="#6A737D" d="M408.128 82.626l4.294 6.767 7.47-5.198-4.48-7.123zm57.42-74.322l6.056 5.29 8.269-6.333L472.71.23z"/><path fill="#1269D3" d="M346.055 12.213l6.42 4.589h1.796l-6.505-5.468z"/><path fill="#F46A23" d="M311.858 135.32l-5.801 3.67 5.121 4.003 4.975-3.836z"/><path fill="#6F47BE" d="M187.582 123.257l-1.26 5.56 3.93-3.517v-3.935z"/><path fill="#F46A23" d="M159.112 124.011l3.804-6.465h1.727l-2.766 6.465zm-48.607-1.681l7.406-5.824 7.223 8.391-7.315 5.984z"/><path fill="#30A64A" d="M25.53 92.307l.382 7.554h9.098v-7.554z"/><path fill="#FFDF5D" d="M.775 118.243l4.915 3.831 5.764-3.83-5.764-2.4z"/><path fill="#E954AC" d="M933.922 3.396l5.686 6.142 1.229-3.071-4.718-4.543z"/></g></svg>