<svg width="813" height="796" viewBox="0 0 813 796" xmlns="http://www.w3.org/2000/svg"><g fill="none" fill-rule="evenodd"><path fill="#1267CD" d="M627.804.553l8.843 2.18 4.026 6.622h-8.204z"/><path fill="#724BBF" d="M676.79 48.236l-3.152 5.838 1.575 4.517 3.14-4.517z"/><path fill="#F46A23" d="M709.368 45.984l-3.85 8.293h1.925l3.643-8.293zm48.017-21.213l-7.501 8.942 9.94 8.159 7.205-9.24z"/><path fill="#6F47BE" d="M809 436.61l-8.429 9.327 6.854 4.918 5.152-4.918z"/><path fill="#FFDF5D" d="M725.412 419.269l2.465 8.654h1.904v-5.965z"/><path fill="#30A64A" d="M700.076 465.1l2.077 6.776h4.875v-6.09z"/><path fill="#FFDF5D" d="M773.446 520.775h4.39l5.21 4.243-2.644.82z"/><path fill="#764FC1" d="M680.14 535.033l-2.04 2.799 3.731 2.1.676-2.1z"/><path d="M576.97 561.575c.282.128 2.875 1.612 7.781 4.45h2.054l-7.29-5.242c-1.979.4-2.827.663-2.545.792z" fill="#1269D3"/><path fill="#FFDF5D" d="M443.837 641.092l-2.322 6.38 3.3 2.104 2.249-5.841z"/><path fill="#30A64A" d="M306.447 642.347l-1.747 4.312 4.74 2.39 1.44-6.702z"/><path fill="#E954AC" d="M316.519 593.375l1.564 5.522 6.398.722-1.494-4.985zm-49.267 10.317v2.496h2.644l6.312-3.894-.7-2.675z"/><path d="M304.738 562.725c.255-.161 1.862-1.593 4.82-4.293l3.939 3.458-3.938 4.034c-3.47-1.971-5.076-3.037-4.82-3.199z" fill="#F46A23"/><path fill="#1269D3" d="M318.983 430.41l7.104 4.001 1.241-1.28-7.655-3.882z"/><path fill="#E954AC" d="M308.934 224.54l.845 4.777 8.254-.996v-5.196z"/><path fill="#1267CD" d="M198.35 95.72l9.09 4.95 1.524-1.174-8.724-6.162z"/><path fill="#FCCF77" d="M218.731 156.014v8.681h5.027l-.996-10.1z"/><path fill="#E954AC" d="M205.627 279.492l5.448 5.28 9.292-3.892-3.374-6.916z"/><path fill="#FFDF5D" d="M.187 601.815l5.885 2.403 5.497-4.52-6.652-1.552z"/><path fill="#30A64A" d="M20.276 571.663l.882 7.341 9.185-2.658-1.263-6.185z"/><path fill="#F46A23" d="M109.315 584.363l6.238-6.944 8.133 6.944-6.102 7.512zm50.819-14.653l-2.97 7.033h2.181l2.176-7.033z"/><path fill="#764FC1" d="M184.631 570.813v4.337l3.605-2.168-1.124-3.272z"/><path fill="#1269D3" d="M212.641 608.432h6.549l4.598 10.506-8.282-3.134z"/><path fill="#FFDF5D" d="M271.73 675.45v5.58l2.071 2.557v-6.617z"/><path fill="#E954AC" d="M77.648 728.079l-1 3.065 4.277 3.625.869-2.407z"/><path fill="#1269D3" d="M347.756 720.092l-1.583 3.71 7.56 2.106 1.945-2.908zm9.734 26.051v1.988l4.5-.357.594-1.63z"/><path fill="#E954AC" d="M396.463 731.626l2.26 5.704 8.743-.532-.67-6.211zm94.41-10.216l-1.28 3.128 6.984 1.726 2.125-3.985zm35.831-4.389l7.424-4.42 2.8 3.258-7.23 4.816z"/><path fill="#6A737D" d="M525.05 784.871l5.33 6.838 8.977-6.838-5.725-6.232zm67.422-68.233l2.948 6.629 8.51-3.892-4.048-6.773z"/><path fill="#F46A23" d="M699.37 675.225l3.101 4.605 5.792-3.406-3.746-4.482z"/><path d="M700.36 637.593v5.738c4.448 1.326 6.606 1.83 6.476 1.515-.13-.315-.355-1.853-.675-4.614l-5.8-2.639zm45.388 11.641l.784 2.442 8.49-1.221v-2.828z" fill="#E954AC"/><path fill="#1269D3" d="M799.868 650.305l1.07 9.586 6.584 3.223-.538-8.048zM648.18 790.646l5.868 5.242 1.535-.762-6.036-5.47z"/></g></svg>