<svg width="84" height="53" viewBox="0 0 84 53" fill="none" xmlns="http://www.w3.org/2000/svg"><path fill-rule="evenodd" clip-rule="evenodd" d="M70.607 4.857c-.923-1.344-2.002-2.434-3.273-3.188C65.494.578 63.44.3 61.277.724c-3.375.662-5.365 2.874-6.441 5.004-1.029 2.035-1.334 4.194-1.236 5.346.089 1.233.275 3.804 1.63 6.83 1.368 3.055 3.879 6.475 8.47 9.522a2 2 0 001.266.327c10.313-.832 15.138-6.297 17.207-9.3l.01-.015c.856-1.268 1.62-3.34 1.694-5.556.078-2.274-.573-4.902-2.824-6.916l-.002-.002c-1.673-1.492-3.637-2.308-5.827-2.29-1.537.013-3.081.436-4.617 1.183zm-5.314.252c-.893-.53-1.927-.718-3.246-.46-1.844.362-2.955 1.525-3.641 2.883-.728 1.44-.85 2.868-.82 3.201l.003.039c.08 1.115.227 3.118 1.291 5.497 1.005 2.245 2.872 4.914 6.457 7.432 8.256-.88 11.954-5.215 13.535-7.509.429-.637.958-1.973 1.008-3.446.048-1.42-.347-2.772-1.492-3.797-1.015-.906-2.04-1.284-3.13-1.275-1.14.01-2.555.448-4.278 1.564a2 2 0 01-2.862-.756c-.92-1.77-1.885-2.815-2.825-3.373zm-39.717 9.66c2.68-1.378 5.632-1.592 8.717-.785l.002.001c4.073 1.071 6.631 3.86 8.09 6.748 1.432 2.839 1.893 5.934 1.693 8.03l-.002.019c-.55 5.23-2.915 15.503-15.8 23.37a2 2 0 01-1.277.28c-8.164-.964-13.822-3.767-17.716-6.8-3.87-3.013-5.916-6.194-6.919-7.758-.852-1.284-1.98-4.192-2.089-7.45-.112-3.367.867-7.368 4.625-10.31 2.43-1.903 5.147-2.814 8.107-2.612 2.328.16 4.686.997 7.072 2.391 1.56-2.29 3.38-4.037 5.497-5.125zm1.828 3.557c-1.728.888-3.408 2.58-4.946 5.322a2 2 0 01-2.883.666c-2.637-1.825-4.899-2.689-6.84-2.821-1.884-.129-3.642.417-5.369 1.77-2.477 1.939-3.176 4.54-3.093 7.027.086 2.58 1.017 4.765 1.428 5.378l.02.032c.939 1.462 2.69 4.183 6.02 6.777 3.215 2.504 7.98 4.947 15.039 5.896 10.97-6.958 12.858-15.65 13.317-20 .123-1.316-.18-3.652-1.283-5.837-1.08-2.14-2.836-3.972-5.535-4.682-2.266-.593-4.188-.394-5.875.472z" fill="#EA4AAA"/></svg>